<svg width="32" height="32" viewBox="0 0 120 120" fill="none" xmlns="http://www.w3.org/2000/svg">
  <g transform="rotate(-15 60 60)">
    <rect x="20" y="28" width="76" height="56" rx="8" fill="#7C3AED"/>
    <rect x="18" y="25" width="76" height="56" rx="8" fill="url(#g1)"/>
    <rect x="30" y="37" width="14" height="11" rx="2.5" fill="url(#g2)"/>
    <rect x="30" y="56" width="32" height="3" rx="1.5" fill="white" opacity="0.7"/>
    <rect x="30" y="63" width="24" height="3" rx="1.5" fill="white" opacity="0.5"/>
    <rect x="30" y="70" width="18" height="3" rx="1.5" fill="white" opacity="0.3"/>
  </g>
  <path d="M82 35 L84.5 42 L92 44.5 L84.5 47 L82 54 L79.5 47 L72 44.5 L79.5 42 Z" fill="#F59E0B"/>
  <path d="M95 18 L96 21 L99 22 L96 23 L95 26 L94 23 L91 22 L94 21 Z" fill="#F59E0B" opacity="0.8"/>
  <circle cx="88" cy="30" r="3" fill="#7C3AED" opacity="0.8"/>
  <circle cx="96" cy="38" r="2.5" fill="#7C3AED" opacity="0.6"/>
  <circle cx="100" cy="48" r="2" fill="#7C3AED" opacity="0.5"/>
  <circle cx="92" cy="55" r="2.5" fill="#7C3AED" opacity="0.4"/>
  <circle cx="102" cy="30" r="1.5" fill="#7C3AED" opacity="0.7"/>
  <circle cx="85" cy="22" r="2" fill="#7C3AED" opacity="0.6"/>
  <defs>
    <linearGradient id="g1" x1="18" y1="25" x2="94" y2="81" gradientUnits="userSpaceOnUse">
      <stop stop-color="#A78BFA"/><stop offset="0.5" stop-color="#7C3AED"/><stop offset="1" stop-color="#6D28D9"/>
    </linearGradient>
    <linearGradient id="g2" x1="30" y1="37" x2="44" y2="48" gradientUnits="userSpaceOnUse">
      <stop stop-color="#FCD34D"/><stop offset="1" stop-color="#F59E0B"/>
    </linearGradient>
  </defs>
</svg>
